# xmcd CD database file generated by Grip 2.96
# 
# Track frame offsets:
#       150
#       14437
#       32912
#       40621
#       57871
#       71498
#       85736
#       100263
#       118907
#       135127
#       146925
#       163907
#       175525
#       195157
#       205635
#       248767
# 
# Disc length: 3474 seconds
# 
# Revision: 0
# Processed by: cddbd v1.4PL0 Copyright (c) Steve Scherf et al.
# Submitted via: Grip 2.96
# 
DISCID=d00d9010
DTITLE=The Gourds - Bolsa de Agua
DYEAR=1900
DGENRE=
TTITLE0=el paso
TTITLE1=jesus christ with signs following
TTITLE2=big santiago bust
TTITLE3=receipts and fevers
TTITLE4=pickles
TTITLE5=o rings
TTITLE6=bugs
TTITLE7=waterbag
TTITLE8=hallelujah shine
TTITLE9=layin around the house
TTITLE10=meat off the bone
TTITLE11=flamenco cabaret
TTITLE12=turn my head around
TTITLE13=tearbox
TTITLE14=high highs and low lows
TTITLE15=?
EXTD=
EXTT0=
EXTT1=
EXTT2=
EXTT3=
EXTT4=
EXTT5=
EXTT6=
EXTT7=
EXTT8=
EXTT9=
EXTT10=
EXTT11=
EXTT12=
EXTT13=
EXTT14=
EXTT15=
PLAYORDER=
